<svg width="19" height="18" viewBox="0 0 19 18" fill="none" xmlns="http://www.w3.org/2000/svg">
    <path fill-rule="evenodd" clip-rule="evenodd" d="M18.4877 9.20454C18.4877 8.56636 18.4304 7.95272 18.324 7.36363H9.84766V10.845H14.6913C14.4827 11.97 13.8486 12.9232 12.8954 13.5614V15.8195H15.804C17.5058 14.2527 18.4877 11.9454 18.4877 9.20454Z" fill="#4285F4"/>
    <path fill-rule="evenodd" clip-rule="evenodd" d="M9.84741 18C12.2774 18 14.3147 17.1941 15.8038 15.8196L12.8951 13.5614C12.0892 14.1014 11.0583 14.4205 9.84741 14.4205C7.50332 14.4205 5.51923 12.8373 4.81151 10.71H1.80469V13.0418C3.2856 15.9832 6.32923 18 9.84741 18Z" fill="#34A853"/>
    <path fill-rule="evenodd" clip-rule="evenodd" d="M4.81175 10.71C4.63175 10.17 4.52947 9.59318 4.52947 8.99999C4.52947 8.40681 4.63175 7.82999 4.81175 7.28999V4.95818H1.80493C1.19538 6.17318 0.847656 7.54772 0.847656 8.99999C0.847656 10.4523 1.19538 11.8268 1.80493 13.0418L4.81175 10.71Z" fill="#FBBC05"/>
    <path fill-rule="evenodd" clip-rule="evenodd" d="M9.84741 3.57955C11.1688 3.57955 12.3551 4.03364 13.2879 4.92545L15.8692 2.34409C14.3106 0.891818 12.2733 0 9.84741 0C6.32923 0 3.2856 2.01682 1.80469 4.95818L4.81151 7.29C5.51923 5.16273 7.50332 3.57955 9.84741 3.57955Z" fill="#EA4335"/>
</svg>