<svg version="1.1" id="Capa_1" xmlns="http://www.w3.org/2000/svg" xmlns:xlink="http://www.w3.org/1999/xlink" x="0px" y="0px"
	 viewBox="0 0 57 57" style="enable-background:new 0 0 57 57;" xml:space="preserve">
<style type="text/css">
	.st0{fill:#63B554;}
	.st1{fill:#FFAB34;}
</style>
<g>
	<polygon class="st0" points="28.5,34.3 2,55.1 2,56 54.4,56 55.1,55.1 	"/>
	<g>
		<g>
			<path d="M57,21.8c0-0.1,0-0.1,0-0.2c0-0.1,0-0.1-0.1-0.2c0-0.1-0.1-0.1-0.1-0.1c0-0.1-0.1-0.1-0.1-0.1c0,0,0,0,0,0l-9.1-7.1V6.7
				c0-1.6-1.3-2.8-2.8-2.8H34.4l-4.1-3.2c-1-0.8-2.4-0.8-3.5,0l-4.1,3.2H12.4c-1.6,0-2.8,1.3-2.8,2.8v7.3l-9.1,7.1c0,0,0,0,0,0
				c0,0-0.1,0.1-0.1,0.1c0,0-0.1,0.1-0.1,0.1c0,0.1,0,0.1-0.1,0.2c0,0.1,0,0.1,0,0.2c0,0,0,0,0,0.1v32.3c0,0.6,0.2,1.2,0.6,1.7
				c0,0,0,0,0,0c0,0,0,0,0,0C1.2,56.6,2.1,57,2.9,57h51.2c0.9,0,1.7-0.4,2.2-1.1c0,0,0,0,0,0c0,0,0,0,0,0c0.4-0.5,0.6-1.1,0.6-1.7
				L57,21.8C57,21.9,57,21.9,57,21.8z M28,2.2c0.3-0.3,0.8-0.3,1.1,0l2.2,1.7h-5.5L28,2.2z M3.2,55.1L28,35.8c0.3-0.3,0.8-0.3,1.1,0
				l24.8,19.3H3.2L3.2,55.1z M55.1,53.6L30.3,34.3c-1-0.8-2.4-0.8-3.5,0L2,53.6V23.3l15.5,12.1c0.4,0.3,1,0.2,1.3-0.2
				c0.3-0.4,0.2-1-0.2-1.3L2.9,21.6l6.7-5.2v7.3c0,0.5,0.4,0.9,0.9,0.9s0.9-0.4,0.9-0.9V6.7c0-0.5,0.4-0.9,0.9-0.9h32.3
				c0.5,0,0.9,0.4,0.9,0.9v17.1c0,0.5,0.4,0.9,0.9,0.9c0.5,0,0.9-0.4,0.9-0.9v-7.3l6.7,5.2L38.4,33.9c-0.3,0.2-0.4,0.5-0.4,0.9
				c0,0.3,0.3,0.6,0.6,0.8c0.3,0.1,0.7,0.1,0.9-0.1l15.6-12.1L55.1,53.6L55.1,53.6z"/>
			<path class="st1" d="M39.9,22.8v-3.8c0-6.3-5.1-11.4-11.4-11.4s-11.4,5.1-11.4,11.4s5.1,11.4,11.4,11.4c0.5,0,0.9-0.4,0.9-0.9
				c0-0.5-0.4-0.9-0.9-0.9c-5.2,0-9.5-4.2-9.5-9.5s4.2-9.5,9.5-9.5s9.5,4.2,9.5,9.5v3.8c0,1-0.8,1.9-1.9,1.9c-1.1,0-1.9-0.8-1.9-1.9
				v-3.8c0-0.5-0.4-0.9-0.9-0.9s-0.9,0.4-0.9,0.9c0,2.1-1.7,3.8-3.8,3.8s-3.8-1.7-3.8-3.8s1.7-3.8,3.8-3.8c0.5,0,0.9-0.4,0.9-0.9
				c0-0.5-0.4-0.9-0.9-0.9c-2.5,0-4.8,1.7-5.5,4.1s0.3,5.1,2.5,6.4c2.2,1.3,5,1.1,6.8-0.6c0.2,2,1.9,3.5,4,3.4
				C38.4,26.5,39.9,24.9,39.9,22.8z"/>
		</g>
	</g>
</g>
</svg>
