<svg width="16" height="28" viewBox="0 0 16 28" fill="none" xmlns="http://www.w3.org/2000/svg">
    <path d="M13.5435 0H1.99749C0.892488 0 0.000488281 0.896 0.000488281 1.999V25.445C0.000488281 26.547 0.892488 27.442 1.99749 27.442H13.5435C14.6465 27.442 15.5405 26.547 15.5405 25.445V1.999C15.5405 0.896 14.6465 0 13.5435 0ZM4.92149 1.214H10.6215C10.7655 1.214 10.8825 1.429 10.8825 1.695C10.8825 1.961 10.7655 2.177 10.6215 2.177H4.92149C4.77649 2.177 4.66149 1.961 4.66149 1.695C4.66149 1.429 4.77649 1.214 4.92149 1.214ZM7.77149 25.469C7.06849 25.469 6.49649 24.897 6.49649 24.193C6.49649 23.489 7.06849 22.919 7.77149 22.919C8.47249 22.919 9.04449 23.489 9.04449 24.193C9.04449 24.897 8.47249 25.469 7.77149 25.469ZM14.0445 21.1H1.49749V3.373H14.0445V21.1Z" fill="black"/>
</svg>
